<?xml version="1.0" standalone="no"?>
<!DOCTYPE svg PUBLIC "-//W3C//DTD SVG 20010904//EN"
 "http://www.w3.org/TR/2001/REC-SVG-20010904/DTD/svg10.dtd">
<svg version="1.0" xmlns="http://www.w3.org/2000/svg"
 width="640.000000pt" height="640.000000pt" viewBox="0 0 640.000000 640.000000"
 preserveAspectRatio="xMidYMid meet">

<g transform="translate(0.000000,640.000000) scale(0.100000,-0.100000)"
fill="white" stroke="none">
<path d="M3015 5550 c-571 -50 -1082 -286 -1480 -685 -349 -348 -578 -793
-659 -1275 -92 -554 19 -1134 307 -1608 328 -538 843 -916 1451 -1067 351 -87
686 -94 1031 -23 460 94 869 314 1200 644 585 585 820 1433 619 2236 -198 787
-783 1415 -1554 1668 -277 91 -636 134 -915 110z m825 -1200 l0 -240 -165 0
c-256 0 -265 -8 -265 -225 l0 -135 220 0 c121 0 220 -3 220 -7 0 -5 -11 -127
-25 -273 -14 -146 -25 -268 -25 -272 0 -5 -92 -8 -205 -8 l-205 0 0 -695 0
-695 -280 0 -280 0 0 695 0 695 -140 0 -140 0 0 280 0 280 134 0 133 0 6 183
c6 203 18 262 73 375 46 95 120 169 216 216 111 55 176 64 471 65 l257 1 0
-240z"/>
</g>
</svg>
