<?xml version="1.0" standalone="no"?>
<!DOCTYPE svg PUBLIC "-//W3C//DTD SVG 20010904//EN"
 "http://www.w3.org/TR/2001/REC-SVG-20010904/DTD/svg10.dtd">
<svg version="1.0" xmlns="http://www.w3.org/2000/svg"
 width="333" height="56" viewBox="0 0 880.000000 264.000000"
 preserveAspectRatio="xMidYMid meet">

<g transform="translate(0.000000,264.000000) scale(0.100000,-0.100000)"
fill="black" stroke="none">
<path d="M1192 2630 c-315 -33 -602 -175 -825 -409 -180 -190 -297 -421 -342
-676 -20 -117 -20 -333 0 -450 94 -534 501 -952 1038 -1067 134 -28 370 -31
500 -5 252 50 474 161 651 325 201 185 329 403 397 677 29 116 37 376 15 510
-54 323 -237 628 -500 830 -258 197 -614 298 -934 265z m293 -715 c65 -9 162
-25 215 -36 239 -52 522 -171 568 -239 49 -72 6 -169 -82 -185 -29 -6 -53 2
-148 49 -259 127 -545 186 -903 186 -195 0 -319 -12 -470 -46 -149 -33 -169
-32 -211 10 -19 19 -34 45 -35 58 -4 72 13 108 61 133 56 29 295 74 475 89 98
8 412 -3 530 -19z m-135 -446 c126 -14 252 -42 380 -85 116 -38 317 -134 344
-163 59 -65 17 -171 -68 -171 -16 0 -73 22 -126 49 -353 182 -797 230 -1199
130 -77 -20 -90 -20 -117 -8 -35 17 -65 74 -57 111 10 52 46 75 161 102 214
51 436 62 682 35z m-110 -419 c213 -15 409 -68 575 -153 98 -51 125 -76 125
-117 0 -38 -39 -80 -75 -80 -14 0 -62 20 -108 44 -179 96 -344 136 -592 143
-152 4 -202 1 -320 -17 -232 -36 -232 -36 -260 -10 -31 29 -33 82 -6 109 11
11 37 25 58 30 68 18 236 43 343 51 58 4 112 8 120 8 8 1 71 -3 140 -8z"/>
<path d="M6804 2016 c-69 -30 -102 -128 -67 -196 53 -103 207 -108 259 -8 65
125 -63 260 -192 204z"/>
<path d="M7401 1970 c-131 -27 -211 -139 -211 -295 l0 -44 -52 -3 -53 -3 -3
-102 -3 -103 56 0 55 0 0 -355 0 -356 118 3 117 3 3 353 2 352 93 0 93 0 117
-282 c65 -156 131 -313 147 -349 28 -66 28 -67 10 -97 -11 -17 -28 -36 -39
-41 -28 -16 -96 -13 -138 4 -19 8 -37 15 -40 15 -2 0 -22 -37 -43 -82 -27 -59
-36 -86 -28 -95 15 -19 107 -50 169 -58 127 -16 235 35 298 141 20 33 70 146
110 250 40 104 114 293 163 419 147 379 143 366 127 376 -8 5 -60 9 -117 9
l-103 0 -18 -42 c-10 -24 -60 -164 -111 -311 -51 -147 -97 -264 -101 -260 -4
4 -59 143 -122 308 l-116 300 -180 3 c-202 3 -192 -2 -170 75 18 67 39 73 199
55 25 -3 25 -3 28 94 l3 97 -38 10 c-59 15 -174 20 -222 11z"/>
<path d="M3369 1915 c-123 -33 -219 -116 -258 -220 -33 -87 -27 -208 14 -283
50 -92 149 -150 333 -197 207 -52 264 -81 283 -145 17 -55 -10 -107 -71 -138
-40 -21 -56 -23 -145 -20 -88 3 -108 7 -170 36 -38 18 -94 51 -123 74 -45 33
-56 38 -66 27 -66 -74 -126 -148 -126 -156 0 -14 106 -90 172 -124 221 -112
516 -100 655 26 27 23 62 67 78 97 25 46 30 66 33 150 4 86 2 102 -20 150 -51
110 -150 171 -376 232 -210 57 -251 84 -252 168 0 64 38 102 117 118 99 21
206 -8 350 -95 37 -23 27 -32 110 89 l47 69 -30 24 c-50 41 -186 103 -259 118
-85 18 -233 18 -296 0z"/>
<path d="M6187 1864 c-4 -4 -7 -58 -7 -120 l0 -113 -52 -3 -53 -3 0 -100 0
-100 52 -3 51 -3 4 -272 c3 -250 5 -276 24 -317 25 -53 78 -103 131 -121 57
-21 197 -17 258 7 l50 20 3 88 c4 116 2 119 -42 101 -53 -22 -141 -20 -166 5
-19 19 -20 33 -20 255 l0 234 118 3 117 3 3 88 c2 57 -1 94 -9 103 -8 10 -39
14 -120 14 l-108 0 -3 118 -3 117 -111 3 c-60 1 -113 -1 -117 -4z"/>
<path d="M4458 1625 c-43 -16 -117 -65 -139 -91 -13 -16 -14 -12 -19 37 l-5
54 -115 0 -115 0 0 -590 0 -590 115 0 115 0 3 183 2 184 37 -33 c129 -113 347
-118 488 -11 125 94 185 223 185 395 0 210 -86 364 -248 440 -60 29 -78 32
-167 34 -67 2 -112 -2 -137 -12z m137 -196 c101 -25 175 -133 176 -252 1 -83
-14 -137 -54 -189 -44 -58 -105 -88 -179 -88 -147 0 -243 107 -242 270 2 132
67 225 184 261 37 11 66 10 115 -2z"/>
<path d="M5407 1620 c-155 -55 -269 -173 -312 -324 -13 -44 -16 -84 -13 -160
4 -87 9 -110 36 -169 57 -123 182 -227 316 -263 76 -20 202 -18 278 6 210 65
340 243 339 463 0 141 -48 246 -156 345 -96 88 -167 115 -315 119 -96 3 -124
0 -173 -17z m263 -211 c58 -26 86 -53 116 -111 33 -66 41 -149 20 -222 -50
-172 -253 -234 -401 -122 -75 58 -112 192 -82 297 45 153 198 223 347 158z"/>
<path d="M6757 1623 c-4 -3 -7 -210 -7 -460 l0 -453 115 0 115 0 1 63 c6 245
4 816 -2 835 -8 21 -14 22 -112 22 -57 0 -107 -3 -110 -7z"/>
<path d="M8591 1612 c-48 -24 -73 -62 -78 -119 -13 -155 193 -211 269 -73 65
119 -70 255 -191 192z m150 -41 c33 -32 39 -45 39 -80 0 -80 -49 -131 -125
-131 -75 0 -125 51 -125 127 1 73 53 123 129 123 37 0 49 -6 82 -39z"/>
<path d="M8600 1484 c0 -56 3 -75 13 -72 6 3 13 14 15 26 4 29 28 28 48 -3 9
-14 23 -25 30 -25 18 0 18 10 -1 37 -13 18 -13 22 0 33 18 15 20 51 3 68 -7 7
-34 12 -60 12 l-48 0 0 -76z m79 47 c21 -13 5 -41 -23 -41 -22 0 -42 31 -28
44 8 9 35 7 51 -3z"/>
</g>
</svg>
