<?xml version="1.0" standalone="no"?>
<!DOCTYPE svg PUBLIC "-//W3C//DTD SVG 20010904//EN"
 "http://www.w3.org/TR/2001/REC-SVG-20010904/DTD/svg10.dtd">
<svg version="1.0" xmlns="http://www.w3.org/2000/svg"
 width="512.000000pt" height="512.000000pt" viewBox="0 0 512.000000 512.000000"
 preserveAspectRatio="xMidYMid meet">

<g transform="translate(0.000000,512.000000) scale(0.100000,-0.100000)"
fill="white" stroke="none">
<path d="M2430 4574 c-383 -27 -764 -168 -1070 -395 -101 -76 -279 -246 -362
-346 -401 -490 -547 -1147 -392 -1764 64 -257 177 -496 335 -709 76 -101 246
-279 346 -362 490 -401 1147 -547 1765 -392 255 64 497 178 708 335 101 76
279 246 362 346 401 489 547 1147 392 1764 -71 283 -208 557 -392 782 -83 100
-261 270 -362 346 -265 197 -571 324 -905 375 -104 16 -331 26 -425 20z m705
-1121 c58 -18 103 -43 163 -91 l43 -34 72 22 c39 12 101 35 136 51 35 16 65
29 68 29 2 0 -4 -16 -12 -36 -23 -55 -82 -131 -134 -171 l-46 -35 49 7 c43 6
145 34 194 53 29 11 -81 -120 -144 -172 l-61 -50 -7 -112 c-15 -263 -91 -493
-239 -714 -71 -106 -262 -292 -370 -359 -383 -236 -892 -261 -1285 -62 -128
65 -128 66 1 67 124 2 205 18 325 64 88 34 225 117 216 131 -3 5 -20 9 -39 9
-81 0 -229 79 -289 154 -38 47 -71 102 -80 131 -5 19 -1 20 77 21 45 0 91 5
102 12 l20 11 -20 1 c-31 0 -145 57 -191 95 -80 66 -143 187 -159 303 l-7 54
30 -16 c31 -16 143 -46 172 -46 8 0 -6 18 -31 40 -138 118 -195 322 -138 493
11 34 24 66 29 71 5 4 48 -32 97 -80 147 -147 318 -253 516 -319 103 -34 251
-65 314 -65 l35 0 -7 58 c-4 33 -2 86 5 121 51 281 324 448 595 364z"/>
</g>
</svg>
